
<svg
 version="1.1"
 id="svg18"
 width="148.75545"
 height="139.72374"
 viewBox="0 0 148.75545 139.72374"
 xmlns="http://www.w3.org/2000/svg"
 xmlns:svg="http://www.w3.org/2000/svg">
  <defs
     id="defs22" />
  <g
     id="g26"
     transform="matrix(1.3333333,0,0,-1.3333333,-1.7098933,229.904)">
    <g
       id="g28"
       transform="scale(0.1)">
      <path
         d="m 901.781,2935.55 c 0.746,0 0.746,-0.38 0.746,-0.75 0,-1.5 -0.746,-4.5 -1.875,-4.5 l -17.64,-3.01 c -3,-0.37 -3.754,-1.88 -3.754,-4.13 -1.875,-24.4 -3.004,-84.08 -3.004,-89.71 0,-4.88 1.504,-5.25 6.008,-5.63 20.644,-0.75 89.336,-1.87 104.726,-1.13 0.375,11.64 -0.379,88.59 -0.379,93.85 0,4.12 -1.496,6.38 -4.5,6.75 l -17.64,3.01 c -1.504,0.37 -2.258,2.62 -2.258,4.5 0,0.37 0,0.75 1.129,0.75 h 76.95 c 0.75,0 0.75,-0.38 0.75,-1.13 0,-1.5 -1.12,-3.75 -1.87,-4.12 l -13.52,-2.63 c -3,-0.38 -3.75,-1.51 -4.13,-7.13 -1.12,-14.27 -3.75,-79.21 -4.13,-99.85 -0.37,-16.89 -2.25,-94.22 -2.25,-102.1 0,-4.5 0.75,-5.63 3.76,-6.39 l 18.39,-3.75 c 0.75,-0.37 1.88,-2.25 1.88,-3.75 0,-0.75 0,-1.13 -1.13,-1.13 -6.01,0.38 -20.65,0.75 -36.04,0.75 -17.266,0 -33.406,-0.37 -39.41,-0.75 -1.125,0 -1.125,0.38 -1.125,1.13 0,1.5 0.375,3.38 1.875,3.75 l 19.144,3.75 c 2.629,0.76 4.879,1.51 4.879,5.26 0.375,10.51 -0.375,93.09 -0.375,102.1 -16.136,0 -83.332,-1.88 -106.226,-3 -3.379,0 -4.508,-1.51 -4.508,-4.13 -0.75,-15.02 -2.25,-84.08 -1.875,-95.72 0,-3.38 1.875,-4.13 4.129,-4.88 l 21.019,-3.38 c 1.125,-0.37 2.254,-2.25 2.254,-3.75 0,-0.75 -0.375,-1.13 -1.129,-1.13 -7.504,0.38 -22.144,0.75 -39.789,0.75 -15.761,0 -28.148,-0.37 -36.035,-0.75 -0.75,0 -0.75,0.38 -0.75,1.13 0,1.5 0.375,3.38 1.879,3.75 l 16.516,3.75 c 2.629,0.38 4.504,1.51 4.504,5.26 0,13.89 -0.75,90.09 -0.75,104.35 0,14.64 -1.5,90.09 -1.5,97.97 -0.375,4.13 -1.129,7.14 -4.508,7.51 l -16.141,3.01 c -1.125,0.37 -1.875,2.25 -1.875,4.12 0,0.75 0,1.13 1.125,1.13 h 78.453"
         style="fill:#918f90;fill-opacity:1;fill-rule:nonzero;stroke:none"
         id="path30" />
      <path
         d="m 1187.51,2917.16 c -1.5,-4.88 -3.37,-11.27 -4.5,-14.27 -11.26,-32.66 -26.65,-79.95 -34.16,-104.72 -0.75,-3.01 0,-3.38 1.5,-3.76 18.4,-1.12 65.69,-3 82.58,-1.87 -6.75,19.89 -27.77,78.82 -38.66,109.6 -1.13,3.75 -3.01,9.39 -5.26,15.02 z m 10.14,19.14 c 7.51,0 14.64,-0.37 19.89,-0.75 1.13,0 1.88,-0.38 2.25,-1.5 13.89,-46.92 52.93,-166.66 68.32,-214.34 1.5,-4.13 4.13,-7.13 7.51,-7.88 l 14.64,-3.75 c 1.12,-0.38 1.87,-2.25 1.87,-3.76 0,-0.37 -0.37,-0.75 -1.12,-0.75 -6.01,0.38 -20.27,0.75 -34.16,0.75 -16.89,0 -33.03,-0.37 -42.04,-0.75 -0.75,0 -0.75,0.38 -0.75,0.75 0,1.88 0.75,3.76 2.25,4.13 l 20.27,3.75 c 3,0.76 4.5,2.63 3.38,5.64 -6,17.27 -19.14,51.8 -25.15,67.94 -16.89,0 -64.94,-1.13 -88.21,-2.25 -2.25,0 -3.01,-1.51 -3.75,-3.76 -3.76,-13.51 -12.77,-44.29 -16.52,-61.56 -0.75,-4.5 0.75,-5.63 3.38,-6.01 l 21.77,-4.12 c 1.5,0 2.25,-1.88 2.25,-3.76 0,-0.75 -0.38,-0.75 -1.13,-0.75 -7.88,0.38 -23.27,0.75 -38.66,0.75 -11.64,0 -22.14,-0.37 -27.77,-0.75 -0.38,0 -0.75,0.38 -0.75,0.75 0,1.51 0.75,3.76 2.25,4.13 l 10.51,3.01 c 2.63,0.74 4.88,2.63 7.13,7.5 19.14,47.3 59.68,161.79 76.95,208.71 2.63,6.75 5.63,8.63 15.01,8.63 h 0.38"
         style="fill:#918f90;fill-opacity:1;fill-rule:nonzero;stroke:none"
         id="path32" />
      <path
         d="m 1540.14,2885.63 c 0,-1.5 -2.63,-2.63 -3.75,-2.63 -0.75,0 -0.75,0 -1.13,0.75 l -12.76,35.28 c -1.5,3.38 -3.38,5.26 -7.51,6.01 -15.39,2.63 -44.67,4.13 -55.93,4.13 -1.5,-24.03 -3,-86.33 -3.38,-103.22 -0.37,-24.4 -1.87,-97.23 -1.87,-108.86 0,-3.76 1.5,-4.51 4.12,-4.89 l 22.15,-3.75 c 1.13,-0.37 2.25,-2.25 2.25,-3.75 0,-0.75 -0.37,-1.13 -1.12,-1.13 -7.51,0.38 -23.65,0.75 -42.04,0.75 -16.52,0 -30.78,-0.37 -39.04,-0.75 -0.75,0 -0.75,0.38 -0.75,0.75 0,1.51 0.75,3.76 1.87,4.13 l 20.28,3.75 c 2.63,0.38 4.12,1.51 4.12,5.26 0.38,13.51 -0.37,91.97 -0.75,107.73 0,14.64 -0.74,82.58 -1.5,103.98 -11.63,0.37 -40.16,-1.13 -55.92,-3.76 -3.76,-0.75 -6.39,-2.25 -7.51,-5.63 l -13.52,-34.15 c -0.37,-0.75 -0.37,-0.75 -1.12,-0.75 -1.51,0 -3.76,1.12 -3.76,2.25 l 2.63,47.67 c 0,1.88 0.75,2.63 2.63,2.63 2.25,0 7.13,-0.38 20.65,-0.75 13.51,-0.75 36.03,-1.13 73.94,-1.13 37.91,0 60.44,0.38 73.95,0.75 13.89,0.38 18.77,0.75 21.02,0.75 1.5,0 2.25,-0.75 2.25,-2.63 l 1.5,-48.79"
         style="fill:#918f90;fill-opacity:1;fill-rule:nonzero;stroke:none"
         id="path34" />
      <path
         d="m 1671.6,2935.55 c 0.75,0 0.75,-0.38 0.75,-0.75 0,-1.5 -0.75,-4.5 -1.89,-4.5 l -17.63,-3.01 c -3.01,-0.37 -3.75,-1.88 -3.75,-4.13 -1.89,-24.4 -3.01,-84.08 -3.01,-89.71 0,-4.88 1.5,-5.25 6.01,-5.63 20.64,-0.75 89.33,-1.87 104.72,-1.13 0.38,11.64 -0.37,88.59 -0.37,93.85 0,4.12 -1.5,6.38 -4.51,6.75 l -17.64,3.01 c -1.5,0.37 -2.25,2.62 -2.25,4.5 0,0.37 0,0.75 1.13,0.75 h 76.94 c 0.75,0 0.75,-0.38 0.75,-1.13 0,-1.5 -1.12,-3.75 -1.87,-4.12 l -13.52,-2.63 c -2.99,-0.38 -3.75,-1.51 -4.13,-7.13 -1.12,-14.27 -3.75,-79.21 -4.12,-99.85 -0.38,-16.89 -2.25,-94.22 -2.25,-102.1 0,-4.5 0.75,-5.63 3.75,-6.39 l 18.39,-3.75 c 0.76,-0.37 1.88,-2.25 1.88,-3.75 0,-0.75 0,-1.13 -1.12,-1.13 -6.01,0.38 -20.65,0.75 -36.04,0.75 -17.27,0 -33.41,-0.37 -39.41,-0.75 -1.14,0 -1.14,0.38 -1.14,1.13 0,1.5 0.39,3.38 1.89,3.75 l 19.14,3.75 c 2.63,0.76 4.88,1.51 4.88,5.26 0.37,10.51 -0.38,93.09 -0.38,102.1 -16.14,0 -83.33,-1.88 -106.23,-3 -3.38,0 -4.5,-1.51 -4.5,-4.13 -0.75,-15.02 -2.26,-84.08 -1.88,-95.72 0,-3.38 1.88,-4.13 4.14,-4.88 l 21.01,-3.38 c 1.12,-0.37 2.26,-2.25 2.26,-3.75 0,-0.75 -0.38,-1.13 -1.14,-1.13 -7.5,0.38 -22.13,0.75 -39.78,0.75 -15.76,0 -28.16,-0.37 -36.04,-0.75 -0.75,0 -0.75,0.38 -0.75,1.13 0,1.5 0.37,3.38 1.88,3.75 l 16.52,3.75 c 2.63,0.38 4.5,1.51 4.5,5.26 0,13.89 -0.75,90.09 -0.75,104.35 0,14.64 -1.5,90.09 -1.5,97.97 -0.37,4.13 -1.13,7.14 -4.51,7.51 l -16.14,3.01 c -1.12,0.37 -1.87,2.25 -1.87,4.12 0,0.75 0,1.13 1.13,1.13 h 78.45"
         style="fill:#918f90;fill-opacity:1;fill-rule:nonzero;stroke:none"
         id="path36" />
      <path
         d="m 1961.79,2935.55 c 0.75,0 1.13,-0.38 1.13,-1.13 0,-1.5 -0.76,-4.12 -2.26,-4.12 l -15.39,-2.63 c -2.63,-0.75 -3.38,-2.26 -3.75,-4.88 -1.51,-24.77 -2.63,-85.96 -3,-102.85 -0.38,-15.77 -1.5,-96.1 -1.5,-103.23 0,-3.38 1.5,-4.13 4.13,-4.88 l 18.39,-3.38 c 1.12,-0.37 1.87,-2.62 1.87,-3.75 0,-0.75 0,-1.13 -0.75,-1.13 -5.25,0.38 -20.65,0.75 -38.28,0.75 -15.39,0 -28.54,-0.37 -36.04,-0.75 -0.75,0 -0.75,0.38 -0.75,1.13 0,1.5 0.75,3.38 1.88,3.75 l 17.64,3.75 c 2.63,0.38 4.12,1.51 4.12,4.89 0.38,13.51 -0.37,87.08 -0.74,106.6 -0.38,19.9 -1.5,86.34 -1.88,95.72 0,4.13 -1.13,7.51 -4.51,8.26 l -16.14,2.63 c -1.12,0 -1.87,1.87 -1.87,4.12 0,0.75 0,1.13 1.12,1.13 h 76.58"
         style="fill:#918f90;fill-opacity:1;fill-rule:nonzero;stroke:none"
         id="path38" />
      <path
         d="m 1020.29,2564.95 c 0,-1.51 -2.62,-2.64 -3.75,-2.64 -0.75,0 -0.75,0 -1.12,0.75 l -12.77,35.29 c -1.5,3.38 -3.377,5.26 -7.509,6 -15.391,2.63 -44.668,4.13 -55.926,4.13 -1.504,-24.02 -3.004,-86.33 -3.379,-103.22 -0.375,-24.4 -1.875,-97.22 -1.875,-108.86 0,-3.75 1.5,-4.5 4.125,-4.88 l 22.148,-3.75 c 1.129,-0.38 2.25,-2.25 2.25,-3.75 0,-0.75 -0.375,-1.13 -1.121,-1.13 -7.511,0.38 -23.652,0.75 -42.043,0.75 -16.515,0 -30.781,-0.37 -39.039,-0.75 -0.75,0 -0.75,0.38 -0.75,0.75 0,1.5 0.75,3.75 1.875,4.13 l 20.27,3.75 c 2.633,0.38 4.129,1.5 4.129,5.26 0.379,13.51 -0.375,91.96 -0.75,107.73 0,14.64 -0.746,82.58 -1.5,103.97 -11.637,0.38 -40.164,-1.12 -55.934,-3.75 -3.75,-0.75 -6.375,-2.25 -7.504,-5.63 l -13.512,-34.15 c -0.375,-0.76 -0.375,-0.76 -1.125,-0.76 -1.503,0 -3.757,1.13 -3.757,2.25 l 2.629,47.67 c 0,1.88 0.75,2.63 2.625,2.63 2.257,0 7.132,-0.38 20.644,-0.75 13.516,-0.75 36.035,-1.12 73.949,-1.12 37.91,0 60.438,0.37 73.95,0.75 13.89,0.37 18.77,0.74 21.02,0.74 1.5,0 2.25,-0.74 2.25,-2.62 l 1.5,-48.79"
         style="fill:#918f90;fill-opacity:1;fill-rule:nonzero;stroke:none"
         id="path40" />
      <path
         d="m 1141.89,2489.12 c 33.78,0 64.57,21.77 64.57,64.93 0,33.04 -22.9,55.94 -60.06,55.94 -12.39,0 -17.27,-1.51 -17.65,-7.13 -1.87,-27.41 -3.75,-101.35 -3.75,-107.73 0,-4.89 3,-6.01 16.52,-6.01 z m 99.1,67.18 c 0,-33.77 -28.91,-54.42 -49.55,-62.68 17.27,-23.65 42.04,-66.81 57.43,-97.22 1.51,-2.62 3.38,-3.75 5.63,-4.5 l 15.77,-4.13 c 1.5,-0.38 2.25,-2.25 2.25,-3.75 0,-0.75 -0.38,-1.13 -1.13,-1.13 -7.13,0.38 -17.26,0.75 -31.53,0.75 -12.01,0 -24.4,-0.37 -38.28,-0.75 -0.75,0 -1.13,0.38 -1.13,0.75 0,1.88 0.75,3.75 2.25,4.13 l 16.89,3 c 3.75,0.75 5.63,1.88 3.75,4.88 -16.13,24.4 -42.41,62.69 -63.43,85.96 -1.13,1.5 -3,1.88 -4.88,1.88 -6.75,-0.76 -21.77,-0.76 -29.65,-0.38 -0.76,-12.01 -2.25,-74.7 -2.25,-85.95 0,-3.76 1.49,-4.89 3.75,-5.26 l 21.77,-4.13 c 1.13,-0.38 1.88,-2.25 1.88,-3.75 0,-0.75 0,-1.13 -1.13,-1.13 -12.01,0.38 -25.15,0.75 -39.04,0.75 -14.26,0 -26.65,-0.37 -36.79,-0.75 -0.74,0 -0.74,0.38 -0.74,1.13 0,1.87 0.37,3.37 1.87,3.75 l 17.27,3.75 c 2.25,0.75 4.13,1.88 4.13,5.26 0.37,13.89 -0.38,88.21 -0.38,104.35 0,14.64 -0.75,88.96 -1.13,97.22 0,4.51 -1.12,7.13 -4.12,7.13 l -17.27,1.5 c -1.12,0.38 -2.25,2.25 -2.25,4.13 0,0.37 0,1.13 1.13,1.13 14.26,1.5 47.67,4.12 79.19,4.12 60.44,0 89.72,-23.27 89.72,-59.68 v -0.38"
         style="fill:#918f90;fill-opacity:1;fill-rule:nonzero;stroke:none"
         id="path42" />
      <path
         d="m 1388.94,2614.87 c 1.12,0 1.12,-0.38 1.12,-0.76 0,-2.25 -0.37,-4.12 -1.88,-4.5 l -19.89,-2.63 c -3,-0.37 -3.75,-1.12 -4.13,-4.12 -3.37,-31.91 -4.5,-76.21 -4.5,-114.12 -0.38,-70.19 22.52,-101.35 55.93,-101.35 41.29,0 59.68,31.53 60.05,104.36 0,28.9 -0.74,81.07 -3.75,110.35 -0.37,3.76 -1.12,4.51 -3.75,4.88 l -20.27,2.63 c -1.5,0.38 -2.25,2.63 -2.25,4.13 0,0.75 0.37,1.13 1.12,1.13 h 71.32 c 1.13,0 1.13,-0.38 1.13,-1.13 0,-1.88 -0.75,-4.13 -1.88,-4.13 l -12.38,-2.25 c -3.01,-0.75 -4.13,-1.88 -3.76,-4.88 2.25,-31.16 4.5,-68.32 4.5,-112.24 -0.37,-70.94 -35.66,-109.6 -93.84,-109.6 -49.92,0 -86.71,25.9 -86.33,103.59 0,44.68 5.63,95.35 7.51,114.87 0.74,4.88 0,7.13 -4.13,7.88 l -14.27,2.63 c -1.5,0.38 -2.25,2.25 -2.25,4.13 0,0.75 0.38,1.13 1.13,1.13 h 75.45"
         style="fill:#918f90;fill-opacity:1;fill-rule:nonzero;stroke:none"
         id="path44" />
      <path
         d="m 1721.18,2449.33 c 0,-37.54 -36.04,-68.69 -102.47,-68.69 -12.4,0 -25.9,1.13 -32.28,3.38 -1.88,0.37 -2.64,1.5 -3.01,3 l -5.63,42.42 c -0.37,1.49 3.01,3.75 4.13,3.75 0.37,0 1.13,-0.37 1.13,-0.75 5.26,-10.89 10.51,-21.77 16.13,-31.91 1.88,-3.37 3.01,-4.5 6.01,-6.38 5.64,-3.38 16.89,-4.88 25.9,-4.88 36.03,0 62.68,17.64 62.68,46.92 0,26.28 -19.89,39.41 -53.67,54.05 -34.53,13.89 -55.55,30.41 -55.55,58.56 0,34.54 39.03,69.07 95.34,69.07 13.88,0 25.15,-1.51 30.78,-4.13 1.5,-0.75 2.25,-1.5 2.25,-3.01 l 3.75,-42.03 c 0,-1.5 -2.62,-3.38 -3.75,-3.38 -0.38,0 -1.13,0.37 -1.13,1.12 -4.87,10.52 -9.75,21.4 -15.01,32.28 -1.5,2.64 -2.62,4.14 -5.63,6.01 -3.75,2.63 -11.63,4.5 -21.77,4.5 -33.78,0 -55.56,-20.64 -55.56,-46.17 0,-21.76 14.64,-33.4 45.8,-48.42 33.41,-15.76 61.56,-31.53 61.56,-64.94 v -0.37"
         style="fill:#918f90;fill-opacity:1;fill-rule:nonzero;stroke:none"
         id="path46" />
      <path
         d="m 1975.74,2564.95 c 0,-1.51 -2.64,-2.64 -3.76,-2.64 -0.75,0 -0.75,0 -1.13,0.75 l -12.76,35.29 c -1.5,3.38 -3.38,5.26 -7.51,6 -15.39,2.63 -44.67,4.13 -55.93,4.13 -1.5,-24.02 -2.99,-86.33 -3.38,-103.22 -0.37,-24.4 -1.87,-97.22 -1.87,-108.86 0,-3.75 1.5,-4.5 4.13,-4.88 l 22.15,-3.75 c 1.12,-0.38 2.24,-2.25 2.24,-3.75 0,-0.75 -0.37,-1.13 -1.12,-1.13 -7.51,0.38 -23.65,0.75 -42.04,0.75 -16.51,0 -30.78,-0.37 -39.04,-0.75 -0.75,0 -0.75,0.38 -0.75,0.75 0,1.5 0.75,3.75 1.88,4.13 l 20.26,3.75 c 2.63,0.38 4.14,1.5 4.14,5.26 0.37,13.51 -0.38,91.96 -0.76,107.73 0,14.64 -0.75,82.58 -1.5,103.97 -11.63,0.38 -40.16,-1.12 -55.93,-3.75 -3.75,-0.75 -6.38,-2.25 -7.5,-5.63 l -13.51,-34.15 c -0.38,-0.76 -0.38,-0.76 -1.14,-0.76 -1.49,0 -3.75,1.13 -3.75,2.25 l 2.63,47.67 c 0,1.88 0.75,2.63 2.63,2.63 2.25,0 7.13,-0.38 20.64,-0.75 13.52,-0.75 36.04,-1.12 73.95,-1.12 37.92,0 60.44,0.37 73.95,0.75 13.89,0.37 18.76,0.74 21.02,0.74 1.5,0 2.25,-0.74 2.25,-2.62 l 1.51,-48.79"
         style="fill:#918f90;fill-opacity:1;fill-rule:nonzero;stroke:none"
         id="path48" />
      <path
         d="M 727.543,2353.77 H 62.0703 v 625.07 H 727.543 v -625.07"
         style="fill:#ee6a18;fill-opacity:1;fill-rule:nonzero;stroke:none"
         id="path50" />
      <path
         d="m 338.59,2926.25 c -23.445,0.59 -46.887,1.18 -70.328,1.76 -11.43,0.28 -34.961,5.89 -45.485,-0.44 -41.871,-25.2 -109.539,-71.37 -113.961,-125.21 -4.554,-55.57 33.196,-89.03 81.164,-109.94 33.016,-14.4 55.059,-42.53 88.946,-55.26 16.84,-6.33 33.383,-0.52 50.344,2.55 8.668,1.58 4.984,14.77 -3.645,13.21 -15.254,-2.78 -27.926,-6.63 -43.062,-2.56 -33.172,8.91 -42.141,43.58 -73.829,50.19 -71.855,15 -110.0465,84.7 -62.433,145.83 18.234,23.41 63.597,69.41 90.015,68.74 34.09,-0.85 68.18,-1.71 102.274,-2.56 8.832,-0.22 8.808,13.47 0,13.69 v 0"
         style="fill:#ffffff;fill-opacity:1;fill-rule:nonzero;stroke:none"
         id="path52" />
      <path
         d="m 335.137,2911.38 c -31.305,-16.79 -51.703,-50.08 -44.942,-85.75 1.645,-8.66 14.84,-4.98 13.203,3.64 -5.609,29.59 13.165,56.62 38.645,70.29 7.781,4.17 0.867,15.99 -6.906,11.82 v 0"
         style="fill:#ffffff;fill-opacity:1;fill-rule:nonzero;stroke:none"
         id="path54" />
      <path
         d="m 256.813,2875.85 c -34.622,5.18 -71.145,0.16 -102.793,-14.63 -7.997,-3.73 -1.04,-15.53 6.902,-11.81 28.004,13.08 61.543,17.84 92.246,13.23 8.633,-1.28 12.344,11.9 3.645,13.21 v 0"
         style="fill:#ffffff;fill-opacity:1;fill-rule:nonzero;stroke:none"
         id="path56" />
      <path
         d="m 239.887,2833.77 c -34.832,-2.56 -69.434,-15.71 -96.879,-37.14 -6.953,-5.43 2.808,-15.05 9.68,-9.68 24.332,19 56.304,30.87 87.199,33.13 8.75,0.65 8.808,14.34 0,13.69 v 0"
         style="fill:#ffffff;fill-opacity:1;fill-rule:nonzero;stroke:none"
         id="path58" />
      <path
         d="m 246.461,2797.71 c -32.246,-4.94 -54.785,-35.83 -64.25,-64.58 -2.762,-8.41 10.453,-11.98 13.203,-3.64 8.106,24.64 27.102,50.79 54.688,55.02 8.703,1.34 4.992,14.53 -3.641,13.2 v 0"
         style="fill:#ffffff;fill-opacity:1;fill-rule:nonzero;stroke:none"
         id="path60" />
      <path
         d="m 265.813,2752.88 c -8.364,-16.72 -16.719,-33.44 -25.083,-50.16 -3.933,-7.86 7.875,-14.8 11.821,-6.9 8.355,16.72 16.719,33.43 25.078,50.15 3.934,7.87 -7.871,14.81 -11.816,6.91 v 0"
         style="fill:#ffffff;fill-opacity:1;fill-rule:nonzero;stroke:none"
         id="path62" />
      <path
         d="m 340.352,2739.24 c 2.836,-16.7 8.918,-50.59 -6.602,-63 -1.937,-1.56 -2.207,-4.44 -1.762,-6.66 3.371,-16.78 -3.703,-26.3 -19.652,-45.06 -34.316,-40.33 -87.457,-56.86 -138.156,-63.31 -7.11,-0.91 -9.961,-11.5 -1.821,-13.45 67.899,-16.27 129.848,9.07 175.508,60.33 10.895,12.23 3.477,12.57 10.781,-10.34 7.098,-22.27 9.219,-46.26 10.274,-69.46 1.551,-34.24 -7.5,-64.9 -42.434,-77.34 -44.554,-15.86 -65.941,57.5 -26.129,49.57 5.039,-1.01 10.875,-4.68 15.282,-7.8 2.679,-1.89 6.019,-0.74 8.289,1.07 4.644,3.72 9.293,7.43 13.937,11.14 2.449,1.96 2.371,5.78 1.071,8.3 -35.454,68.5 -124.883,15.32 -103.688,-52.44 18.008,-57.57 93.523,-84.99 146.141,-58.72 87.054,43.47 72.925,119.56 69.66,201.84 -0.426,10.68 -10.367,20.38 -0.492,7.41 9.691,-12.72 21.164,-24.61 33.859,-34.36 41.488,-31.83 86.758,-42.05 137.625,-29.89 8.145,1.94 5.285,12.53 -1.824,13.44 -52.551,6.69 -101.332,23.92 -138.145,63.31 -16.504,17.66 -22.863,29.03 -19.656,45.06 0.441,2.23 0.18,5.1 -1.766,6.66 -15.507,12.42 -9.429,46.3 -6.597,63.01 1.457,8.63 -11.731,12.33 -13.203,3.64 -19.461,-114.84 71.043,-181.58 179.367,-195.37 -0.606,4.48 -1.211,8.97 -1.821,13.45 -63.64,-15.22 -126.472,12.19 -162.246,66.52 -1.675,2.55 -4.672,4.04 -7.73,3.15 -19.027,-5.58 -10.688,-35.4 -10.102,-50.21 1.618,-40.59 8.45,-83.47 -9.164,-121.51 -27.883,-60.22 -130.894,-71.35 -169.101,-16.21 -28.379,40.95 4.355,128.6 58.715,76.34 14.73,-14.16 2.89,-11.35 -8.129,-7.16 -29.114,11.07 -52.696,-6.06 -47.77,-36.99 5.883,-36.94 47.285,-43.56 76.317,-33.22 41.371,14.73 44.542,62.56 42.863,99.54 -0.934,20.52 -3.305,81.62 -30.492,87.32 -3.289,0.69 -5.797,-0.51 -7.731,-3.14 -38.879,-52.91 -103.789,-79.09 -167.828,-63.74 -0.609,-4.48 -1.215,-8.96 -1.82,-13.44 108.308,13.79 198.851,80.53 179.375,195.36 -1.477,8.69 -14.664,5 -13.203,-3.64 v 0"
         style="fill:#ffffff;fill-opacity:1;fill-rule:nonzero;stroke:none"
         id="path64" />
      <path
         d="m 455.816,2911.87 c 34.09,0.85 68.184,1.7 102.27,2.55 27.574,0.69 69.875,-45.88 90.019,-68.74 57.692,-65.45 1.692,-125.03 -62.441,-145.82 -30.051,-9.75 -42.301,-38.36 -73.816,-50.2 -14.211,-5.34 -28.797,-0.03 -43.071,2.56 -8.625,1.57 -12.312,-11.62 -3.64,-13.2 14.926,-2.71 28.707,-6.98 43.703,-4.34 37.992,6.66 58.328,44.8 93.949,56.35 49.453,16.04 87.109,58.11 82.801,110.64 -4.395,53.56 -70.539,97.66 -111.402,123.62 -10.551,6.69 -27.008,2.55 -38.762,2.26 -26.539,-0.67 -53.071,-1.33 -79.61,-1.99 -8.808,-0.22 -8.836,-13.91 0,-13.69 v 0"
         style="fill:#ffffff;fill-opacity:1;fill-rule:nonzero;stroke:none"
         id="path66" />
      <path
         d="m 452.363,2898.88 c 25.485,-13.68 44.262,-40.71 38.649,-70.3 -1.633,-8.63 11.554,-12.31 13.203,-3.65 6.762,35.68 -13.645,68.97 -44.945,85.76 -7.778,4.18 -14.692,-7.65 -6.907,-11.81 v 0"
         style="fill:#ffffff;fill-opacity:1;fill-rule:nonzero;stroke:none"
         id="path68" />
      <path
         d="m 541.23,2861.95 c 30.708,4.6 64.258,-0.16 92.262,-13.25 7.946,-3.71 14.899,8.09 6.903,11.82 -31.649,14.8 -68.184,19.82 -102.805,14.63 -8.703,-1.3 -4.992,-14.49 3.64,-13.2 v 0"
         style="fill:#ffffff;fill-opacity:1;fill-rule:nonzero;stroke:none"
         id="path70" />
      <path
         d="m 554.531,2819.38 c 30.895,-2.26 62.864,-14.13 87.199,-33.13 6.868,-5.36 16.629,4.25 9.676,9.68 -27.445,21.43 -62.043,34.59 -96.875,37.14 -8.808,0.65 -8.75,-13.04 0,-13.69 v 0"
         style="fill:#ffffff;fill-opacity:1;fill-rule:nonzero;stroke:none"
         id="path72" />
      <path
         d="m 544.313,2783.81 c 27.585,-4.23 46.578,-30.38 54.675,-55.02 2.75,-8.34 15.969,-4.77 13.203,3.64 -9.457,28.75 -31.992,59.64 -64.238,64.59 -8.633,1.32 -12.344,-11.87 -3.64,-13.21 v 0"
         style="fill:#ffffff;fill-opacity:1;fill-rule:nonzero;stroke:none"
         id="path74" />
      <path
         d="m 516.785,2745.27 c 8.36,-16.72 16.723,-33.44 25.078,-50.16 3.95,-7.9 15.754,-0.96 11.821,6.91 -8.364,16.72 -16.719,33.44 -25.079,50.16 -3.949,7.89 -15.753,0.96 -11.82,-6.91 v 0"
         style="fill:#ffffff;fill-opacity:1;fill-rule:nonzero;stroke:none"
         id="path76" />
      <path
         d="m 469.176,2803.92 c -6.215,-4.49 -11.215,-10.93 -14.258,-17.92 -0.773,-1.77 -5.656,-19.29 1.93,-15.95 4.715,2.07 7.23,11.33 9.015,15.58 2.235,5.28 4.278,10.67 6.184,16.08 0.84,2.38 -2.942,3.4 -3.77,1.04 -3.086,-8.77 -6.32,-17.71 -10.789,-25.87 -0.414,-0.75 -0.867,-1.48 -1.343,-2.2 -1.356,-2.03 -0.696,0.12 0.41,-1.48 -2.051,2.97 1.597,10.68 2.925,13.41 2.575,5.31 6.86,10.46 11.668,13.93 2.028,1.46 0.079,4.86 -1.972,3.38"
         style="fill:#ffffff;fill-opacity:1;fill-rule:nonzero;stroke:none"
         id="path78" />
      <path
         d="m 324.277,2802.5 c 4.536,-3.27 8.235,-7.91 11.016,-12.69 2.23,-3.84 4.691,-9.9 3.66,-14.41 0.094,0.39 1.914,-0.65 0.649,0.81 -0.672,0.77 -1.161,1.75 -1.664,2.63 -4.586,8.06 -7.711,17.15 -10.79,25.87 -0.832,2.36 -4.609,1.35 -3.769,-1.03 1.801,-5.12 3.754,-10.19 5.816,-15.21 2.059,-5 4.344,-13.2 9.145,-16.35 1.519,-1.01 3.359,-0.12 4.062,1.38 1.922,4.13 -0.191,10.09 -1.687,14 -2.766,7.18 -8.227,13.88 -14.465,18.38 -2.051,1.48 -4,-1.92 -1.973,-3.38"
         style="fill:#ffffff;fill-opacity:1;fill-rule:nonzero;stroke:none"
         id="path80" />
      <path
         d="m 80.0586,554.898 c 0.7461,0 0.7461,-0.367 0.7461,-0.738 0,-1.5 -0.7461,-4.512 -1.875,-4.512 l -17.6406,-3 c -3.0039,-0.378 -3.7539,-1.878 -3.7539,-4.128 -1.875,-24.391 -3.0039,-84.079 -3.0039,-89.711 0,-4.879 1.5039,-5.25 6.0039,-5.629 20.6445,-0.75 89.3358,-1.879 104.7308,-1.121 0.375,11.632 -0.379,88.582 -0.379,93.832 0,4.14 -1.496,6.379 -4.5,6.757 l -17.645,3 c -1.504,0.383 -2.254,2.641 -2.254,4.512 0,0.371 0,0.738 1.129,0.738 h 76.946 c 0.753,0 0.753,-0.367 0.753,-1.117 0,-1.492 -1.125,-3.75 -1.875,-4.133 l -13.515,-2.617 c -3.004,-0.383 -3.75,-1.5 -4.125,-7.14 -1.129,-14.262 -3.754,-79.2 -4.133,-99.852 -0.375,-16.879 -2.25,-94.207 -2.25,-102.09 0,-4.508 0.754,-5.629 3.754,-6.39 l 18.394,-3.75 c 0.747,-0.368 1.875,-2.25 1.875,-3.75 0,-0.758 0,-1.129 -1.128,-1.129 -6.004,0.371 -20.645,0.75 -36.036,0.75 -17.265,0 -33.406,-0.379 -39.414,-0.75 -1.121,0 -1.121,0.371 -1.121,1.129 0,1.5 0.375,3.382 1.875,3.75 l 19.145,3.75 c 2.629,0.761 4.879,1.511 4.879,5.261 0.375,10.512 -0.375,93.09 -0.375,102.11 -16.141,0 -83.3324,-1.891 -106.2269,-3.008 -3.3789,0 -4.5078,-1.5 -4.5078,-4.133 -0.75,-15.008 -2.25,-84.078 -1.875,-95.707 0,-3.383 1.875,-4.141 4.125,-4.891 l 21.0195,-3.382 c 1.1289,-0.368 2.2578,-2.25 2.2578,-3.75 0,-0.758 -0.375,-1.129 -1.1289,-1.129 -7.5039,0.371 -22.1484,0.75 -39.7891,0.75 -15.7617,0 -28.1484,-0.379 -36.03513,-0.75 -0.75,0 -0.75,0.371 -0.75,1.129 0,1.5 0.375,3.382 1.87891,3.75 l 16.51172,3.75 c 2.6328,0.382 4.5078,1.511 4.5078,5.261 0,13.891 -0.75,90.102 -0.75,104.352 0,14.637 -1.5,90.09 -1.5,97.969 -0.375,4.129 -1.1289,7.129 -4.5078,7.507 l -16.14063,3 c -1.125,0.383 -1.875001,2.262 -1.875001,4.133 0,0.75 0,1.117 1.125001,1.117 H 80.0586"
         style="fill:#918f90;fill-opacity:1;fill-rule:nonzero;stroke:none"
         id="path82" />
      <path
         d="m 365.793,536.52 c -1.508,-4.879 -3.383,-11.258 -4.508,-14.27 -11.262,-32.66 -26.652,-79.949 -34.156,-104.73 -0.75,-3 0,-3.379 1.5,-3.75 18.391,-1.129 65.687,-3.008 82.582,-1.872 -6.758,19.891 -27.777,78.821 -38.66,109.614 -1.129,3.75 -3.008,9.367 -5.262,15.008 z m 10.129,19.152 c 7.512,0 14.644,-0.383 19.898,-0.774 1.121,0 1.875,-0.367 2.25,-1.488 13.887,-46.922 52.926,-166.668 68.317,-214.34 1.504,-4.129 4.133,-7.129 7.508,-7.879 l 14.64,-3.75 c 1.121,-0.382 1.875,-2.25 1.875,-3.761 0,-0.379 -0.375,-0.75 -1.125,-0.75 -6.004,0.371 -20.269,0.75 -34.156,0.75 -16.891,0 -33.035,-0.379 -42.043,-0.75 -0.75,0 -0.75,0.371 -0.75,0.75 0,1.879 0.75,3.761 2.254,4.129 l 20.269,3.75 c 3,0.761 4.5,2.632 3.379,5.64 -6.008,17.262 -19.144,51.801 -25.152,67.942 -16.891,0 -64.938,-1.129 -88.215,-2.25 -2.25,0 -3,-1.5 -3.75,-3.762 -3.754,-13.508 -12.762,-44.277 -16.516,-61.559 -0.753,-4.5 0.75,-5.629 3.379,-6.011 l 21.774,-4.118 c 1.496,0 2.25,-1.882 2.25,-3.761 0,-0.75 -0.375,-0.75 -1.129,-0.75 -7.883,0.371 -23.274,0.75 -38.66,0.75 -11.637,0 -22.145,-0.379 -27.778,-0.75 -0.375,0 -0.75,0.371 -0.75,0.75 0,1.511 0.75,3.761 2.25,4.129 l 10.512,3.011 c 2.629,0.739 4.879,2.621 7.133,7.5 19.144,47.301 59.68,161.782 76.949,208.711 2.629,6.75 5.633,8.641 15.012,8.641 h 0.375"
         style="fill:#918f90;fill-opacity:1;fill-rule:nonzero;stroke:none"
         id="path84" />
      <path
         d="m 718.418,504.98 c 0,-1.5 -2.625,-2.621 -3.754,-2.621 -0.746,0 -0.746,0 -1.125,0.75 l -12.762,35.282 c -1.504,3.379 -3.379,5.257 -7.511,6.007 -15.383,2.633 -44.668,4.133 -55.926,4.133 -1.5,-24.031 -3.004,-86.34 -3.379,-103.23 -0.375,-24.403 -1.875,-97.211 -1.875,-108.852 0,-3.75 1.5,-4.508 4.125,-4.89 l 22.148,-3.75 c 1.129,-0.368 2.25,-2.25 2.25,-3.75 0,-0.758 -0.375,-1.129 -1.121,-1.129 -7.511,0.371 -23.648,0.75 -42.043,0.75 -16.515,0 -30.781,-0.379 -39.039,-0.75 -0.75,0 -0.75,0.371 -0.75,0.75 0,1.511 0.75,3.761 1.875,4.129 l 20.274,3.75 c 2.629,0.382 4.125,1.511 4.125,5.261 0.379,13.508 -0.375,91.969 -0.75,107.731 0,14.64 -0.746,82.578 -1.5,103.98 -11.637,0.379 -40.164,-1.133 -55.926,-3.761 -3.758,-0.739 -6.383,-2.25 -7.512,-5.629 L 524.727,504.98 c -0.372,-0.742 -0.372,-0.742 -1.122,-0.742 -1.503,0 -3.757,1.121 -3.757,2.25 l 2.629,47.672 c 0,1.879 0.75,2.621 2.625,2.621 2.257,0 7.132,-0.371 20.652,-0.742 13.508,-0.75 36.031,-1.141 73.941,-1.141 37.91,0 60.438,0.391 73.95,0.774 13.89,0.367 18.765,0.738 21.019,0.738 1.504,0 2.25,-0.738 2.25,-2.629 l 1.504,-48.801"
         style="fill:#918f90;fill-opacity:1;fill-rule:nonzero;stroke:none"
         id="path86" />
      <path
         d="m 849.871,554.898 c 0.754,0 0.754,-0.367 0.754,-0.738 0,-1.5 -0.754,-4.512 -1.887,-4.512 l -17.633,-3 c -3.007,-0.378 -3.75,-1.878 -3.75,-4.128 -1.886,-24.391 -3.007,-84.079 -3.007,-89.711 0,-4.879 1.504,-5.25 6.004,-5.629 20.644,-0.75 89.336,-1.879 104.726,-1.121 0.383,11.632 -0.371,88.582 -0.371,93.832 0,4.14 -1.504,6.379 -4.512,6.757 l -17.636,3 c -1.504,0.383 -2.254,2.641 -2.254,4.512 0,0.371 0,0.738 1.133,0.738 h 76.941 c 0.754,0 0.754,-0.367 0.754,-1.117 0,-1.492 -1.125,-3.75 -1.875,-4.133 l -13.52,-2.617 c -2.996,-0.383 -3.75,-1.5 -4.129,-7.14 -1.125,-14.262 -3.75,-79.2 -4.121,-99.852 -0.383,-16.879 -2.258,-94.207 -2.258,-102.09 0,-4.508 0.754,-5.629 3.75,-6.39 l 18.403,-3.75 c 0.75,-0.368 1.875,-2.25 1.875,-3.75 0,-0.758 0,-1.129 -1.125,-1.129 -6.004,0.371 -20.645,0.75 -36.035,0.75 -17.278,0 -33.41,-0.379 -39.414,-0.75 -1.133,0 -1.133,0.371 -1.133,1.129 0,1.5 0.383,3.382 1.887,3.75 l 19.136,3.75 c 2.629,0.761 4.887,1.511 4.887,5.261 0.367,10.512 -0.383,93.09 -0.383,102.11 -16.14,0 -83.332,-1.891 -106.23,-3.008 -3.379,0 -4.5,-1.5 -4.5,-4.133 -0.754,-15.008 -2.258,-84.078 -1.875,-95.707 0,-3.383 1.875,-4.141 4.129,-4.891 l 21.015,-3.382 c 1.121,-0.368 2.254,-2.25 2.254,-3.75 0,-0.758 -0.379,-1.129 -1.133,-1.129 -7.5,0.371 -22.136,0.75 -39.785,0.75 -15.762,0 -28.148,-0.379 -36.031,-0.75 -0.754,0 -0.754,0.371 -0.754,1.129 0,1.5 0.375,3.382 1.879,3.75 l 16.516,3.75 c 2.628,0.382 4.503,1.511 4.503,5.261 0,13.891 -0.75,90.102 -0.75,104.352 0,14.637 -1.5,90.09 -1.5,97.969 -0.375,4.129 -1.128,7.129 -4.503,7.507 l -16.145,3 c -1.121,0.383 -1.875,2.262 -1.875,4.133 0,0.75 0,1.117 1.129,1.117 h 78.449"
         style="fill:#918f90;fill-opacity:1;fill-rule:nonzero;stroke:none"
         id="path88" />
      <path
         d="m 1140.07,554.898 c 0.75,0 1.12,-0.367 1.12,-1.117 0,-1.492 -0.75,-4.133 -2.25,-4.133 l -15.4,-2.617 c -2.62,-0.761 -3.37,-2.261 -3.75,-4.883 -1.5,-24.769 -2.62,-85.957 -2.99,-102.847 -0.38,-15.762 -1.51,-96.09 -1.51,-103.219 0,-3.383 1.51,-4.141 4.13,-4.891 l 18.39,-3.382 c 1.13,-0.368 1.88,-2.618 1.88,-3.75 0,-0.758 0,-1.129 -0.75,-1.129 -5.26,0.371 -20.65,0.75 -38.29,0.75 -15.39,0 -28.53,-0.379 -36.03,-0.75 -0.75,0 -0.75,0.371 -0.75,1.129 0,1.5 0.75,3.382 1.87,3.75 l 17.65,3.75 c 2.63,0.382 4.12,1.511 4.12,4.89 0.38,13.512 -0.37,87.09 -0.74,106.602 -0.38,19.898 -1.51,86.34 -1.89,95.719 0,4.121 -1.12,7.5 -4.5,8.261 l -16.14,2.617 c -1.12,0 -1.88,1.883 -1.88,4.133 0,0.75 0,1.117 1.13,1.117 h 76.58"
         style="fill:#918f90;fill-opacity:1;fill-rule:nonzero;stroke:none"
         id="path90" />
      <path
         d="m 198.57,184.301 c 0,-1.5 -2.629,-2.629 -3.757,-2.629 -0.75,0 -0.75,0 -1.122,0.75 l -12.761,35.289 c -1.504,3.379 -3.379,5.258 -7.512,6 -15.391,2.641 -44.668,4.129 -55.93,4.129 -1.504,-24.02 -3,-86.328 -3.379,-103.219 -0.375,-24.402 -1.875,-97.2226 -1.875,-108.8593 0,-3.75 1.5,-4.5117 4.129,-4.8828 l 22.149,-3.74999 c 1.129,-0.36719 2.25,-2.25 2.25,-3.75 C 140.762,2.62109 140.387,2.25 139.641,2.25 132.129,2.62109 115.984,3 97.5977,3 81.0781,3 66.8164,2.62109 58.5586,2.25 c -0.75,0 -0.75,0.37109 -0.75,0.75 0,1.5 0.75,3.76172 1.875,4.12891 l 20.2695,3.74999 c 2.6289,0.3711 4.1289,1.5 4.1289,5.25 0.375,13.5195 -0.375,91.9801 -0.75,107.7421 0,14.641 -0.75,82.578 -1.5,103.969 -11.6367,0.379 -40.1679,-1.121 -55.9336,-3.762 -3.75,-0.738 -6.375,-2.238 -7.5039,-5.617 L 4.88281,184.301 c -0.375,-0.742 -0.375,-0.742 -1.1289,-0.742 C 2.25,183.559 0,184.68 0,185.801 l 2.625,47.679 c 0,1.872 0.75391,2.622 2.62891,2.622 2.25781,0 7.13279,-0.383 20.64449,-0.75 13.5157,-0.75 36.0352,-1.133 73.9493,-1.133 37.9103,0 60.4333,0.383 73.9453,0.761 13.895,0.372 18.77,0.739 21.02,0.739 1.503,0 2.257,-0.739 2.257,-2.617 l 1.5,-48.801"
         style="fill:#918f90;fill-opacity:1;fill-rule:nonzero;stroke:none"
         id="path92" />
      <path
         d="m 320.172,108.48 c 33.777,0 64.558,21.782 64.558,64.942 0,33.027 -22.894,55.93 -60.058,55.93 -12.387,0 -17.266,-1.512 -17.641,-7.141 -1.875,-27.402 -3.754,-101.352 -3.754,-107.731 0,-4.878 3,-6 16.52,-6 z m 99.098,67.192 c 0,-33.781 -28.911,-54.434 -49.551,-62.692 17.261,-23.6402 42.039,-66.8081 57.429,-97.2183 1.504,-2.6211 3.379,-3.75 5.629,-4.5117 l 15.77,-4.12109 c 1.496,-0.36719 2.25,-2.25 2.25,-3.75 C 450.797,2.62109 450.422,2.25 449.668,2.25 442.539,2.62109 432.402,3 418.141,3 406.129,3 393.738,2.62109 379.855,2.25 c -0.753,0 -1.128,0.37109 -1.128,0.75 0,1.87891 0.75,3.76172 2.25,4.12891 l 16.894,3.01169 c 3.75,0.7383 5.629,1.8711 3.75,4.8711 -16.137,24.4102 -42.41,62.6875 -63.433,85.9573 -1.125,1.5 -3,1.883 -4.883,1.883 -6.75,-0.762 -21.774,-0.762 -29.653,-0.383 -0.754,-12.0081 -2.25,-74.6877 -2.25,-85.9495 0,-3.7578 1.496,-4.8906 3.754,-5.2695 l 21.77,-4.12109 c 1.125,-0.36719 1.879,-2.25 1.879,-3.75 0,-0.75782 0,-1.12891 -1.129,-1.12891 C 315.664,2.62109 302.527,3 288.637,3 274.375,3 261.988,2.62109 251.852,2.25 c -0.747,0 -0.747,0.37109 -0.747,1.12891 0,1.88281 0.372,3.38281 1.875,3.75 l 17.262,3.74999 c 2.258,0.75 4.133,1.8828 4.133,5.25 C 274.75,30.0195 274,104.352 274,120.492 c 0,14.637 -0.754,88.969 -1.129,97.219 0,4.5 -1.125,7.141 -4.125,7.141 l -17.269,1.5 c -1.125,0.367 -2.254,2.25 -2.254,4.117 0,0.371 0,1.133 1.129,1.133 14.261,1.5 47.671,4.117 79.199,4.117 60.433,0 89.719,-23.27 89.719,-59.68 v -0.367"
         style="fill:#918f90;fill-opacity:1;fill-rule:nonzero;stroke:none"
         id="path94" />
      <path
         d="m 567.211,234.219 c 1.129,0 1.129,-0.367 1.129,-0.739 0,-2.261 -0.375,-4.128 -1.879,-4.511 l -19.895,-2.617 c -3.003,-0.383 -3.753,-1.133 -4.128,-4.141 -3.375,-31.902 -4.504,-76.191 -4.504,-114.102 -0.375,-70.1988 22.519,-101.34728 55.929,-101.34728 41.293,0 59.684,31.51958 60.059,104.34728 0,28.891 -0.746,81.082 -3.754,110.36 -0.371,3.75 -1.125,4.5 -3.75,4.883 l -20.273,2.617 c -1.5,0.383 -2.254,2.633 -2.254,4.133 0,0.75 0.379,1.117 1.129,1.117 h 71.32 c 1.125,0 1.125,-0.367 1.125,-1.117 0,-1.883 -0.75,-4.133 -1.879,-4.133 l -12.383,-2.25 c -3.008,-0.75 -4.133,-1.867 -3.754,-4.879 2.25,-31.149 4.5,-68.32 4.5,-112.238 C 683.574,38.6484 648.293,0 590.105,0 c -49.917,0 -86.707,25.8984 -86.332,103.602 0,44.66 5.629,95.347 7.512,114.859 0.746,4.879 0,7.129 -4.133,7.891 l -14.261,2.617 c -1.504,0.383 -2.25,2.25 -2.25,4.133 0,0.75 0.375,1.117 1.121,1.117 h 75.449"
         style="fill:#918f90;fill-opacity:1;fill-rule:nonzero;stroke:none"
         id="path96" />
      <path
         d="M 899.453,68.6914 C 899.453,31.1484 863.418,0 796.98,0 c -12.386,0 -25.894,1.12891 -32.277,3.37891 -1.883,0.37109 -2.633,1.5 -3.004,3 l -5.636,42.41019 c -0.372,1.5117 3.007,3.7617 4.132,3.7617 0.375,0 1.129,-0.3789 1.129,-0.75 5.254,-10.8906 10.508,-21.7813 16.137,-31.9219 1.879,-3.3594 3.004,-4.4883 6.008,-6.3672 5.633,-3.3711 16.89,-4.88279 25.894,-4.88279 36.035,0 62.688,17.64059 62.688,46.92189 0,26.2812 -19.895,39.4101 -53.672,54.0512 -34.535,13.898 -55.559,30.398 -55.559,58.57 0,34.527 39.039,69.058 95.344,69.058 13.887,0 25.156,-1.511 30.781,-4.128 1.504,-0.75 2.254,-1.5 2.254,-3 l 3.75,-42.051 c 0,-1.5 -2.625,-3.371 -3.75,-3.371 -0.379,0 -1.133,0.371 -1.133,1.121 -4.871,10.508 -9.753,21.398 -15.007,32.289 -1.504,2.621 -2.625,4.121 -5.633,5.988 -3.75,2.641 -11.633,4.524 -21.77,4.524 -33.777,0 -55.554,-20.653 -55.554,-46.18 0,-21.762 14.636,-33.402 45.796,-48.41 33.411,-15.774 61.555,-31.543 61.555,-64.9534 v -0.3672"
         style="fill:#918f90;fill-opacity:1;fill-rule:nonzero;stroke:none"
         id="path98" />
      <path
         d="m 1154.01,184.301 c 0,-1.5 -2.63,-2.629 -3.76,-2.629 -0.75,0 -0.75,0 -1.12,0.75 l -12.76,35.289 c -1.51,3.379 -3.38,5.258 -7.51,6 -15.39,2.641 -44.67,4.129 -55.93,4.129 -1.5,-24.02 -3,-86.328 -3.38,-103.219 -0.37,-24.402 -1.87,-97.2226 -1.87,-108.8593 0,-3.75 1.5,-4.5117 4.13,-4.8828 l 22.15,-3.74999 c 1.12,-0.36719 2.24,-2.25 2.24,-3.75 0,-0.75782 -0.37,-1.12891 -1.12,-1.12891 -7.51,0.37109 -23.65,0.75 -42.04,0.75 -16.52,0 -30.78,-0.37891 -39.05,-0.75 -0.75,0 -0.75,0.37109 -0.75,0.75 0,1.5 0.75,3.76172 1.89,4.12891 l 20.26,3.74999 c 2.63,0.3711 4.13,1.5 4.13,5.25 0.37,13.5195 -0.37,91.9801 -0.75,107.7421 0,14.641 -0.75,82.578 -1.5,103.969 -11.64,0.379 -40.161,-1.121 -55.93,-3.762 -3.75,-0.738 -6.379,-2.238 -7.5,-5.617 l -13.52,-34.16 c -0.379,-0.742 -0.379,-0.742 -1.132,-0.742 -1.493,0 -3.75,1.121 -3.75,2.242 l 2.628,47.679 c 0,1.872 0.75,2.622 2.625,2.622 2.258,0 7.129,-0.383 20.649,-0.75 13.515,-0.75 36.03,-1.133 73.94,-1.133 37.92,0 60.44,0.383 73.96,0.761 13.89,0.372 18.76,0.739 21.01,0.739 1.51,0 2.26,-0.739 2.26,-2.617 l 1.5,-48.801"
         style="fill:#918f90;fill-opacity:1;fill-rule:nonzero;stroke:none"
         id="path100" />
      <path
         d="M 1128.49,676.352 H 12.8242 V 1724.28 H 1128.49 V 676.352"
         style="fill:#ee6a18;fill-opacity:1;fill-rule:nonzero;stroke:none"
         id="path102" />
      <path
         d="m 474.039,1636.12 c -35.965,0.9 -71.922,1.8 -107.883,2.7 -20.351,0.51 -66.758,11.18 -85.328,0.08 -76.773,-45.89 -170.5,-115.84 -191.5897,-207.42 -19.5039,-84.71 57.7817,-156.46 128.9917,-184.72 16.782,-6.66 49.106,-10.22 60.442,-25.16 9.918,-13.06 21.605,-24.23 33.773,-35.12 17.399,-15.57 38.309,-26.61 60.098,-34.54 29.316,-10.68 56.164,-1.59 85.863,3.8 14.547,2.64 8.367,24.76 -6.101,22.13 -22.953,-4.17 -44,-11.38 -66.645,-5.91 -25.93,6.25 -48.055,22.75 -67.515,40.17 -33.653,30.11 -25.942,36.48 -67,47.07 -95.508,24.64 -176.3169,115.99 -120.7,213.46 25.606,44.88 69.582,80.76 110.274,111.39 12.855,9.68 26.195,18.73 39.679,27.51 12.61,8.21 6.926,6.28 12.36,6.15 60.426,-1.52 120.855,-3.03 181.281,-4.54 14.805,-0.37 14.77,22.58 0,22.95 v 0"
         style="fill:#ffffff;fill-opacity:1;fill-rule:nonzero;stroke:none"
         id="path104" />
      <path
         d="m 468.246,1611.19 c -52.48,-28.15 -86.676,-83.95 -75.336,-143.76 2.754,-14.52 24.867,-8.36 22.129,6.11 -9.41,49.6 22.07,94.92 64.789,117.83 13.043,7 1.457,26.81 -11.582,19.82 v 0"
         style="fill:#ffffff;fill-opacity:1;fill-rule:nonzero;stroke:none"
         id="path106" />
      <path
         d="m 336.934,1551.61 c -58.039,8.7 -119.274,0.29 -172.332,-24.51 -13.403,-6.26 -1.743,-26.04 11.582,-19.81 46.937,21.93 103.171,29.91 154.644,22.19 14.477,-2.16 20.699,19.95 6.106,22.13 v 0"
         style="fill:#ffffff;fill-opacity:1;fill-rule:nonzero;stroke:none"
         id="path108" />
      <path
         d="m 308.563,1481.08 c -58.403,-4.29 -116.399,-26.35 -162.418,-62.28 -11.653,-9.1 4.71,-25.22 16.226,-16.23 40.797,31.86 94.399,51.76 146.192,55.56 14.667,1.08 14.773,24.03 0,22.95 v 0"
         style="fill:#ffffff;fill-opacity:1;fill-rule:nonzero;stroke:none"
         id="path110" />
      <path
         d="m 319.586,1420.62 c -54.063,-8.29 -91.848,-60.07 -107.711,-108.26 -4.641,-14.1 17.523,-20.09 22.129,-6.11 13.594,41.31 45.434,85.15 91.684,92.24 14.589,2.24 8.371,24.35 -6.102,22.13 v 0"
         style="fill:#ffffff;fill-opacity:1;fill-rule:nonzero;stroke:none"
         id="path112" />
      <path
         d="m 352.02,1345.46 c -14.012,-28.03 -28.028,-56.06 -42.04,-84.09 -6.597,-13.19 13.2,-24.82 19.817,-11.58 14.012,28.03 28.023,56.06 42.039,84.09 6.598,13.19 -13.199,24.82 -19.816,11.58 v 0"
         style="fill:#ffffff;fill-opacity:1;fill-rule:nonzero;stroke:none"
         id="path114" />
      <path
         d="m 476.996,1322.6 c 4.258,-24.35 16.5,-87.71 -8.75,-103.83 -4.594,-2.94 -6.328,-7.7 -5.273,-12.96 1.984,-9.87 1.261,-26.47 4.328,-18.23 -1.363,-3.67 -3.199,-7.16 -4.946,-10.64 -9.125,-18.17 -21.492,-34.46 -34.972,-49.58 -57.981,-65.01 -144.879,-93.39 -228.981,-103.24 -12.125,-1.42 -16.492,-19.04 -3.05,-22.54 117.343,-30.459 235.769,21.18 307.027,117.05 -8.5,-11.44 17.289,-89.43 19.383,-105.82 5.351,-41.869 7.004,-88.669 -10.129,-128.08 -17.641,-40.57 -73.707,-59.269 -112.586,-41.171 -28.516,13.281 -52.559,79.222 -0.301,81.011 12.637,0.442 26.797,-7.988 36.817,-15.269 4.441,-3.219 10.136,-1.211 13.906,1.801 7.781,6.23 15.57,12.457 23.359,18.679 4.145,3.321 3.914,9.66 1.789,13.899 -23.719,47.422 -72.863,64.17 -121.148,45.152 -68.426,-26.953 -70.727,-96.703 -43.367,-154.594 15.41,-32.609 43.203,-55 74.257,-72.359 72.657,-40.609 152.579,-17.559 216.34,28.211 97.211,69.781 65.387,217.33 61.313,319.86 -0.235,5.98 -14.469,18 -8.594,9.43 4.469,-6.53 9.43,-12.72 14.387,-18.88 17.136,-21.3 37.5,-40.83 59.613,-56.89 66.359,-48.18 142.168,-63.848 221.824,-43.2 13.449,3.49 9.074,21.12 -3.051,22.54 -85.961,10.06 -168.531,39.18 -228.961,103.22 -13.917,14.75 -25.511,31.66 -34.964,49.57 -1.821,3.46 -3.528,7.02 -4.946,10.65 3.118,-7.99 2.27,8.05 4.313,18.25 1.047,5.25 -0.68,10.02 -5.278,12.95 -25.238,16.13 -13,79.5 -8.75,103.85 2.528,14.47 -19.582,20.66 -22.125,6.1 -6.519,-37.31 -12.808,-82.63 5.657,-117.32 4.593,-8.64 7.265,-4.98 5.664,-12.99 -0.746,-3.72 -3.461,-11.76 -1.973,-15.96 2.535,-7.13 5.957,-13.94 9.481,-20.62 54.265,-102.82 172.879,-147.88 281.882,-160.65 -1.015,7.52 -2.031,15.02 -3.05,22.54 -105.246,-27.278 -213.215,21.13 -272.008,111.53 -2,3.08 -5.918,6.23 -9.906,5.69 -41.856,-5.58 -19.153,-105.54 -18.067,-132.8 3.524,-88.788 3.442,-161.901 -82.433,-216.249 -67.657,-42.82 -172.403,-31.449 -217.469,32.277 -24.828,35.121 -41.863,85.102 -12.61,122.703 24.403,31.348 71.809,38.411 102.317,14.239 6.219,-4.93 11.394,-11.52 15.965,-17.918 10.484,-14.68 -2.051,-3.782 5.242,2.047 -6.168,-4.93 -12.336,-9.86 -18.504,-14.797 6.578,5.269 15.75,-2.543 3.801,4.859 -9.598,5.949 -21.399,10.859 -32.574,12.328 -23.243,3.039 -67.364,-13.051 -63.457,-44.75 8.386,-68.051 68.789,-111.008 135.019,-77.668 76.387,38.43 75.473,128.551 64.402,203.099 -1.804,12.15 -27.961,146.58 -61.058,102.06 -64.61,-86.92 -174.582,-132.94 -280.348,-105.48 -1.019,-7.52 -2.035,-15.02 -3.051,-22.54 111.094,13.01 225.094,58.32 281.911,160.67 8.339,15.03 4.566,39.33 11.363,47.22 24.476,28.45 13.297,86.22 7.449,119.64 -2.543,14.56 -24.656,8.37 -22.129,-6.1 v 0"
         style="fill:#ffffff;fill-opacity:1;fill-rule:nonzero;stroke:none"
         id="path116" />
      <path
         d="m 670.566,1612.01 c 59.063,1.47 118.122,2.95 177.184,4.42 13.582,0.34 1.625,3.23 8.629,-1.08 13.559,-8.36 26.652,-17.45 39.621,-26.7 45.129,-32.16 87.992,-70.3 118.17,-117.15 61.25,-95.12 -23.815,-175.98 -106.936,-208.95 -14.054,-5.58 -40.972,-3.99 -50.371,-16.37 -24.312,-32.04 -52.57,-59.34 -90.894,-73.29 -25.153,-9.16 -47.957,-0.86 -73.668,3.82 -14.469,2.63 -20.645,-19.48 -6.106,-22.13 27.512,-5 51.485,-12.53 78.856,-5.93 20.297,4.9 40.547,15.84 56.82,28.6 33.699,26.41 49.418,49.38 91.469,63.17 81.074,26.6 153.44,97.15 142.44,186.84 -11.21,91.44 -118.401,165.13 -190.405,209.5 -17.918,11.04 -57.812,1.62 -77.449,1.13 -39.121,-0.98 -78.238,-1.96 -117.36,-2.93 -14.769,-0.37 -14.804,-23.32 0,-22.95 v 0"
         style="fill:#ffffff;fill-opacity:1;fill-rule:nonzero;stroke:none"
         id="path118" />
      <path
         d="m 664.773,1590.22 c 42.727,-22.92 74.211,-68.25 64.801,-117.85 -2.738,-14.47 19.375,-20.63 22.129,-6.11 11.344,59.81 -22.863,115.62 -75.348,143.78 -13.035,6.99 -24.621,-12.82 -11.582,-19.82 v 0"
         style="fill:#ffffff;fill-opacity:1;fill-rule:nonzero;stroke:none"
         id="path120" />
      <path
         d="m 813.766,1528.32 c 51.484,7.71 107.722,-0.27 154.672,-22.21 13.32,-6.23 24.98,13.56 11.582,19.81 -53.067,24.81 -114.313,33.22 -172.36,24.53 -14.594,-2.19 -8.367,-24.29 6.106,-22.13 v 0"
         style="fill:#ffffff;fill-opacity:1;fill-rule:nonzero;stroke:none"
         id="path122" />
      <path
         d="m 836.063,1456.96 c 51.792,-3.8 105.39,-23.7 146.183,-55.55 11.52,-8.99 27.884,7.13 16.231,16.23 -46.02,35.93 -104.012,57.99 -162.414,62.26 -14.77,1.08 -14.668,-21.87 0,-22.94 v 0"
         style="fill:#ffffff;fill-opacity:1;fill-rule:nonzero;stroke:none"
         id="path124" />
      <path
         d="m 818.93,1397.32 c 46.258,-7.09 78.086,-50.94 91.672,-92.25 4.597,-13.99 26.765,-8 22.128,6.1 -15.855,48.2 -53.628,99.99 -107.695,108.28 -14.472,2.22 -20.695,-19.89 -6.105,-22.13 v 0"
         style="fill:#ffffff;fill-opacity:1;fill-rule:nonzero;stroke:none"
         id="path126" />
      <path
         d="m 772.781,1332.7 c 14.016,-28.03 28.035,-56.06 42.047,-84.08 6.621,-13.24 26.41,-1.62 19.817,11.58 -14.016,28.02 -28.036,56.06 -42.047,84.08 -6.621,13.24 -26.41,1.62 -19.817,-11.58 v 0"
         style="fill:#ffffff;fill-opacity:1;fill-rule:nonzero;stroke:none"
         id="path128" />
      <path
         d="m 692.965,1431.03 c -10.422,-7.52 -18.805,-18.32 -23.906,-30.04 -1.289,-2.97 -9.481,-32.35 3.238,-26.75 7.906,3.48 12.117,19.01 15.121,26.13 3.734,8.86 7.168,17.88 10.359,26.95 1.411,4 -4.925,5.7 -6.316,1.75 -5.176,-14.7 -10.598,-29.69 -18.086,-43.37 -0.695,-1.27 -1.461,-2.49 -2.258,-3.69 -2.269,-3.4 -1.168,0.19 0.684,-2.49 -3.442,4.98 2.691,17.92 4.914,22.5 4.316,8.9 11.492,17.52 19.558,23.34 3.395,2.45 0.129,8.14 -3.308,5.67"
         style="fill:#ffffff;fill-opacity:1;fill-rule:nonzero;stroke:none"
         id="path130" />
      <path
         d="m 450.043,1428.65 c 7.609,-5.48 13.801,-13.26 18.469,-21.28 3.738,-6.44 7.867,-16.6 6.14,-24.15 0.153,0.66 3.207,-1.1 1.078,1.35 -1.117,1.3 -1.937,2.94 -2.781,4.42 -7.691,13.5 -12.933,28.74 -18.09,43.37 -1.39,3.96 -7.73,2.25 -6.32,-1.75 3.02,-8.57 6.289,-17.07 9.754,-25.48 3.449,-8.38 7.281,-22.13 15.324,-27.42 2.543,-1.67 5.637,-0.21 6.813,2.32 3.23,6.93 -0.317,16.92 -2.836,23.46 -4.625,12.04 -13.781,23.29 -24.239,30.83 -3.437,2.47 -6.707,-3.21 -3.312,-5.67"
         style="fill:#ffffff;fill-opacity:1;fill-rule:nonzero;stroke:none"
         id="path132" />
    </g>
  </g>
</svg>
